<svg xmlns="http://www.w3.org/2000/svg" width="800" height="600" viewBox="0 0 800 600">
  <defs>
    <linearGradient id="g" x1="0" x2="1" y1="0" y2="1">
      <stop offset="0%" stop-color="#233b7a"/>
      <stop offset="50%" stop-color="#f2f2f2"/>
      <stop offset="100%" stop-color="#ba2b31"/>
    </linearGradient>
  </defs>
  <rect width="800" height="600" fill="url(#g)"/>
  <rect x="160" y="170" width="480" height="290" rx="22" fill="#ffffff" opacity="0.93"/>
  <path d="M200 220 h400 v30 h-400z M200 280 h400 v30 h-400z M200 340 h400 v30 h-400z M200 400 h400 v30 h-400z" fill="#cc2e3a"/>
  <rect x="200" y="220" width="180" height="180" fill="#22428d"/>
  <g fill="#fff">
    <circle cx="235" cy="255" r="6"/><circle cx="275" cy="255" r="6"/><circle cx="315" cy="255" r="6"/>
    <circle cx="255" cy="295" r="6"/><circle cx="295" cy="295" r="6"/><circle cx="335" cy="295" r="6"/>
    <circle cx="235" cy="335" r="6"/><circle cx="275" cy="335" r="6"/><circle cx="315" cy="335" r="6"/>
  </g>
  <text x="400" y="115" text-anchor="middle" font-family="Georgia, serif" font-size="52" fill="#fff">4th of July</text>
</svg>
